#!OML:ASF H:\MichaelJackson\Top Level 1\Subject 1\Session 1\male.ASF
:FULLY-SPECIFIED
:DEGREES
75
root 3.73872 16.872 -18.8125 7.9208 -3.24666 -0.550183
lowerback -5.15877 -0.298786 -1.95154
upperback -0.92808 -0.339817 2.19035
thorax 1.96193 -0.187343 3.33119
lowerneck -8.83405 -1.30789 -4.11508
upperneck 1.23655 -1.42629 3.18152
head 1.98351 -0.650762 1.67263
rclavicle 7.00716e-015 4.37326e-015
rhumerus -38.1717 5.91493 -89.5348
rradius 34.6741
rwrist 12.9236
rhand -30.6506 -22.8404
rfingers 7.12502
rthumb -3.9457 -52.7836
lclavicle 7.00716e-015 4.37326e-015
lhumerus -37.7506 -5.27337 95.709
lradius 38.9602
lwrist 6.04154
lhand -12.5134 5.76946
lfingers 7.12502
lthumb 13.5622 35.3077
rfemur -20.5417 5.23426 19.7642
rtibia 36.118
rfoot -21.173 -13.2842
rtoes 16.8188
lfemur -19.8865 1.30413 -20.7524
ltibia 35.6532
lfoot -23.2448 9.12372
ltoes 13.2646
76
root 3.73714 16.8724 -18.8117 7.89962 -3.18504 -0.541253
lowerback -5.14884 -0.312234 -1.96607
upperback -0.920122 -0.35725 2.19669
thorax 1.96596 -0.196318 3.3448
lowerneck -8.79723 -1.30238 -4.1194
upperneck 1.15387 -1.41829 3.17286
head 1.94911 -0.647029 1.67031
rclavicle 6.83322e-015 -2.50469e-014
rhumerus -38.1356 5.89417 -89.5267
rradius 34.6218
rwrist 12.9462
rhand -30.6529 -22.8219
rfingers 7.12502
rthumb -3.94799 -52.7651
lclavicle 6.83322e-015 -2.50469e-014
lhumerus -37.7584 -5.24418 95.6972
lradius 38.9356
lwrist 6.03806
lhand -12.7953 4.97137
lfingers 7.12502
lthumb 13.2905 34.5276
rfemur -20.4759 5.35034 19.7588
rtibia 36.1235
rfoot -21.3133 -13.3091
rtoes 17.5441
lfemur -19.8612 1.29329 -20.7513
ltibia 35.6403
lfoot -23.2343 9.08553
ltoes 13.2366
77
root 3.73544 16.8725 -18.8108 7.87592 -3.11691 -0.531772
lowerback -5.13858 -0.327532 -1.98187
upperback -0.912514 -0.377088 2.20318
thorax 1.96965 -0.206496 3.35912
lowerneck -8.75732 -1.2963 -4.12488
upperneck 1.07242 -1.40959 3.16475
head 1.9146 -0.642957 1.66842
rclavicle 6.5102e-015 -4.77083e-015
rhumerus -38.1162 5.87994 -89.5206
rradius 34.5888
rwrist 12.9579
rhand -30.659 -22.8141
rfingers 7.12502
rthumb -3.95381 -52.7571
lclavicle 6.5102e-015 -4.77083e-015
lhumerus -37.7702 -5.21805 95.6876
lradius 38.9137
lwrist 6.03169
lhand -13.06 4.21085
lfingers 7.12502
lthumb 13.0354 33.7836
rfemur -20.3959 5.48896 19.7518
rtibia 36.1292
rfoot -21.4949 -13.3166
rtoes 18.4707
lfemur -19.8331 1.28248 -20.7496
ltibia 35.6272
lfoot -23.2251 9.0415
ltoes 13.2073
78
root 3.73377 16.8727 -18.8098 7.85175 -3.04753 -0.522497
lowerback -5.12783 -0.342761 -1.99677
upperback -0.905916 -0.396878 2.20943
thorax 1.97202 -0.216613 3.3727
lowerneck -8.7131 -1.2901 -4.13026
upperneck 0.989548 -1.40088 3.15601
head 1.87889 -0.638914 1.66628
rclavicle -1.06847e-015 -8.74653e-015
rhumerus -38.1106 5.87098 -89.5161
rradius 34.5719
rwrist 12.9609
rhand -30.6675 -22.82
rfingers 7.12502
rthumb -3.96207 -52.763
lclavicle -1.06847e-015 -8.74653e-015
lhumerus -37.7842 -5.19391 95.6793
lradius 38.896
lwrist 6.01932
lhand -13.2593 3.59507
lfingers 7.12502
lthumb 12.8433 33.1799
rfemur -20.3211 5.6149 19.7492
rtibia 36.1367
rfoot -21.6467 -13.3564
rtoes 19.1788
lfemur -19.8034 1.27017 -20.7475
ltibia 35.6122
lfoot -23.216 8.99679
ltoes 13.1786
79
root 3.73213 16.8728 -18.8085 7.82799 -2.97659 -0.513578
lowerback -5.09861 -0.361502 -2.00441
upperback -0.912106 -0.421788 2.2128
thorax 1.95121 -0.22873 3.37885
lowerneck -8.66931 -1.27918 -4.13882
upperneck 0.921653 -1.38598 3.15258
head 1.84811 -0.631704 1.66682
rclavicle -6.06293e-015 -7.15625e-015
rhumerus -38.1383 5.87859 -89.5252
rradius 34.5747
rwrist 12.9559
rhand -30.6806 -22.8303
rfingers 7.12502
rthumb -3.97472 -52.773
lclavicle -6.06293e-015 -7.15625e-015
lhumerus -37.8172 -5.16136 95.6643
lradius 38.8861
lwrist 6.00608
lhand -13.3797 3.16044
lfingers 7.12502
lthumb 12.7271 32.7526
rfemur -20.2573 5.72634 19.7507
rtibia 36.1445
rfoot -21.7562 -13.4419
rtoes 19.6093
lfemur -19.7736 1.25835 -20.7449
ltibia 35.5981
lfoot -23.2101 8.95071
ltoes 13.137
80
root 3.73067 16.8732 -18.8072 7.80914 -2.91159 -0.505613
lowerback -5.08163 -0.376278 -2.01114
upperback -0.915983 -0.441357 2.21653
thorax 1.93924 -0.238333 3.38523
lowerneck -8.62157 -1.26905 -4.14789
upperneck 0.848995 -1.37213 3.14779
head 1.81513 -0.625058 1.66692
rclavicle -1.55549e-014 2.26615e-014
rhumerus -38.1621 5.88052 -89.5289
rradius 34.5761
rwrist 12.9489
rhand -30.6944 -22.8418
rfingers 7.12502
rthumb -3.98806 -52.7842
lclavicle -1.55549e-014 2.26615e-014
lhumerus -37.8421 -5.13534 95.6536
lradius 38.8762
lwrist 5.98495
lhand -13.4195 2.91047
lfingers 7.12502
lthumb 12.6888 32.505
rfemur -20.2137 5.8043 19.757
rtibia 36.1537
rfoot -21.8045 -13.5699
rtoes 19.6733
lfemur -19.7476 1.24701 -20.7423
ltibia 35.5836
lfoot -23.2065 8.90714
ltoes 13.1024
81
root 3.72944 16.8733 -18.8058 7.79669 -2.8553 -0.498849
lowerback -5.06801 -0.388075 -2.01388
upperback -0.923232 -0.457095 2.21966
thorax 1.92537 -0.245924 3.38899
lowerneck -8.5753 -1.25829 -4.15942
upperneck 0.781527 -1.3573 3.14479
head 1.78417 -0.617892 1.66812
rclavicle -2.23633e-016 -2.82274e-014
rhumerus -38.1901 5.88458 -89.5326
rradius 34.5753
rwrist 12.9452
rhand -30.7088 -22.8471
rfingers 7.12502
rthumb -4.00192 -52.7892
lclavicle -2.23633e-016 -2.82274e-014
lhumerus -37.8671 -5.1107 95.6443
lradius 38.8705
lwrist 5.96419
lhand -13.362 2.89364
lfingers 7.12502
lthumb 12.7442 32.4847
rfemur -20.1973 5.85329 19.7659
rtibia 36.1629
rfoot -21.7823 -13.7437
rtoes 19.3621
lfemur -19.7282 1.23618 -20.7402
ltibia 35.5703
lfoot -23.2047 8.87111
ltoes 13.0614
82
root 3.72839 16.8735 -18.8044 7.78897 -2.80707 -0.494733
lowerback -5.06177 -0.396138 -2.01286
upperback -0.93008 -0.467988 2.22322
thorax 1.91566 -0.251137 3.39138
lowerneck -8.53004 -1.24747 -4.17139
upperneck 0.715924 -1.34229 3.14023
head 1.75403 -0.610664 1.66891
rclavicle -5.36719e-015 1.86858e-014
rhumerus -38.2169 5.88731 -89.5332
rradius 34.556
rwrist 12.985
rhand -30.759 -22.8103
rfingers 7.12502
rthumb -4.05038 -52.7515
lclavicle -5.36719e-015 1.86858e-014
lhumerus -37.8862 -5.08836 95.6378
lradius 38.8636
lwrist 5.94472
lhand -13.3044 2.8473
lfingers 7.12502
lthumb 12.7997 32.4349
rfemur -20.1987 5.87858 19.7785
rtibia 36.1724
rfoot -21.7148 -13.9401
rtoes 18.8049
lfemur -19.7131 1.22685 -20.7365
ltibia 35.5578
lfoot -23.2042 8.83866
ltoes 13.0288
83
root 3.72762 16.8738 -18.803 7.78872 -2.77287 -0.491773
lowerback -5.06804 -0.398155 -2.00954
upperback -0.935227 -0.47082 2.22683
thorax 1.91408 -0.25245 3.39304
lowerneck -8.4888 -1.23775 -4.18315
upperneck 0.654006 -1.32861 3.13314
head 1.72585 -0.604138 1.6688
rclavicle -1.54058e-015 3.97569e-016
rhumerus -38.239 5.88932 -89.5293
rradius 34.525
rwrist 13.0501
rhand -30.8246 -22.7446
rfingers 7.12502
rthumb -4.1138 -52.6846
lclavicle -1.54058e-015 3.97569e-016
lhumerus -37.8985 -5.06855 95.6349
lradius 38.8594
lwrist 5.93253
lhand -13.2493 2.82768
lfingers 7.12502
lthumb 12.8529 32.4119
rfemur -20.2259 5.87351 19.7918
rtibia 36.1803
rfoot -21.5827 -14.1573
rtoes 17.94
lfemur -19.7066 1.22119 -20.7343
ltibia 35.5482
lfoot -23.2049 8.81576
ltoes 12.9958
